<svg preserveAspectRatio="none" width="100%" height="100%" overflow="visible" style="display: block;" viewBox="0 0 21 21" fill="none" xmlns="http://www.w3.org/2000/svg">
<path id="Vector" d="M18.7953 11.1056C18.6283 10.9155 18.5362 10.6711 18.5362 10.4181C18.5362 10.1651 18.6283 9.92068 18.7953 9.73058L20.1286 8.23058C20.2755 8.0667 20.3668 7.86048 20.3892 7.64153C20.4117 7.42257 20.3642 7.20213 20.2536 7.01183L18.1703 3.40767C18.0608 3.21758 17.8941 3.06691 17.694 2.97713C17.4938 2.88735 17.2704 2.86304 17.0557 2.90767L15.0973 3.3035C14.8482 3.35499 14.5887 3.31349 14.3681 3.18683C14.1474 3.06018 13.9807 2.85713 13.8994 2.616L13.264 0.70975C13.1941 0.502853 13.061 0.323151 12.8834 0.196044C12.7058 0.0689364 12.4928 0.000852913 12.2744 0.00141662H8.10776C7.88061 -0.0104397 7.65582 0.0523816 7.46772 0.180285C7.27963 0.308189 7.13857 0.494145 7.06609 0.70975L6.48276 2.616C6.40151 2.85713 6.23482 3.06018 6.01413 3.18683C5.79344 3.31349 5.53403 3.35499 5.28484 3.3035L3.27443 2.90767C3.07084 2.8789 2.86328 2.91102 2.67791 3C2.49255 3.08898 2.33766 3.23082 2.23276 3.40767L0.149428 7.01183C0.0360531 7.20001 -0.0149239 7.41921 0.00378494 7.63811C0.0224938 7.857 0.10993 8.06437 0.253595 8.23058L1.57651 9.73058C1.74351 9.92068 1.83561 10.1651 1.83561 10.4181C1.83561 10.6711 1.74351 10.9155 1.57651 11.1056L0.253595 12.6056C0.10993 12.7718 0.0224938 12.9792 0.00378494 13.1981C-0.0149239 13.417 0.0360531 13.6362 0.149428 13.8243L2.23276 17.4285C2.34224 17.6186 2.50893 17.7693 2.70907 17.859C2.9092 17.9488 3.13258 17.9731 3.34734 17.9285L5.30568 17.5327C5.55486 17.4812 5.81428 17.5227 6.03496 17.6493C6.25565 17.776 6.42235 17.979 6.50359 18.2202L7.13901 20.1264C7.21149 20.342 7.35255 20.528 7.54064 20.6559C7.72874 20.7838 7.95353 20.8466 8.18068 20.8347H12.3473C12.5657 20.8353 12.7788 20.7672 12.9563 20.6401C13.1339 20.513 13.267 20.3333 13.3369 20.1264L13.9723 18.2202C14.0536 17.979 14.2203 17.776 14.441 17.6493C14.6617 17.5227 14.9211 17.4812 15.1703 17.5327L17.1286 17.9285C17.3434 17.9731 17.5667 17.9488 17.7669 17.859C17.967 17.7693 18.1337 17.6186 18.2432 17.4285L20.3265 13.8243C20.4371 13.634 20.4846 13.4136 20.4621 13.1946C20.4397 12.9757 20.3484 12.7695 20.2015 12.6056L18.7953 11.1056ZM17.2432 12.5014L18.0765 13.4389L16.7432 15.7514L15.514 15.5014C14.7638 15.3481 13.9834 15.4755 13.3209 15.8595C12.6584 16.2436 12.16 16.8575 11.9203 17.5847L11.5244 18.7514H8.85776L8.48276 17.5639C8.24303 16.8367 7.74462 16.2228 7.08214 15.8387C6.41967 15.4547 5.63924 15.3272 4.88901 15.4806L3.65984 15.7306L2.30568 13.4285L3.13901 12.491C3.65146 11.9181 3.93477 11.1763 3.93477 10.4077C3.93477 9.63899 3.65146 8.89727 3.13901 8.32433L2.30568 7.38683L3.63901 5.09517L4.86818 5.34517C5.61841 5.49852 6.39883 5.37108 7.06131 4.98704C7.72378 4.603 8.22219 3.98908 8.46193 3.26183L8.85776 2.08475H11.5244L11.9203 3.27225C12.16 3.9995 12.6584 4.61341 13.3209 4.99746C13.9834 5.3815 14.7638 5.50894 15.514 5.35558L16.7432 5.10558L18.0765 7.41808L17.2432 8.35558C16.7365 8.92721 16.4567 9.66463 16.4567 10.4285C16.4567 11.1924 16.7365 11.9298 17.2432 12.5014ZM10.1911 6.25142C9.36701 6.25142 8.56142 6.49579 7.87622 6.95363C7.19101 7.41147 6.65696 8.06221 6.3416 8.82357C6.02623 9.58493 5.94372 10.4227 6.10449 11.231C6.26526 12.0392 6.6621 12.7816 7.24482 13.3644C7.82753 13.9471 8.56996 14.3439 9.37822 14.5047C10.1865 14.6655 11.0242 14.5829 11.7856 14.2676C12.547 13.9522 13.1977 13.4182 13.6556 12.733C14.1134 12.0478 14.3578 11.2422 14.3578 10.4181C14.3578 9.31301 13.9188 8.25321 13.1374 7.4718C12.356 6.6904 11.2962 6.25142 10.1911 6.25142ZM10.1911 12.5014C9.77905 12.5014 9.37626 12.3792 9.03366 12.1503C8.69105 11.9214 8.42403 11.596 8.26635 11.2153C8.10866 10.8347 8.06741 10.4158 8.14779 10.0116C8.22818 9.60752 8.4266 9.2363 8.71795 8.94494C9.00931 8.65358 9.38053 8.45517 9.78466 8.37478C10.1888 8.29439 10.6077 8.33565 10.9884 8.49333C11.369 8.65102 11.6944 8.91804 11.9233 9.26065C12.1522 9.60325 12.2744 10.006 12.2744 10.4181C12.2744 10.9706 12.0549 11.5005 11.6642 11.8912C11.2735 12.2819 10.7436 12.5014 10.1911 12.5014Z" fill="var(--fill-0, white)"/>
</svg>
