<svg preserveAspectRatio="none" width="100%" height="100%" overflow="visible" style="display: block;" viewBox="0 0 9 11" fill="none" xmlns="http://www.w3.org/2000/svg">
<g id="Group">
<path id="Vector" d="M5.02989 9.91C4.94829 9.9686 4.85036 10.0001 4.74989 10.0001C4.64943 10.0001 4.55149 9.9686 4.46989 9.91C2.05539 8.189 -0.50711 4.649 2.08339 2.091C2.79456 1.39142 3.75231 0.999562 4.74989 1C5.74989 1 6.70939 1.3925 7.41639 2.0905C10.0069 4.6485 7.44439 8.188 5.02989 9.91Z" stroke="var(--stroke-0, black)" stroke-linecap="round" stroke-linejoin="round"/>
<path id="Vector_2" d="M4.74989 5.5C5.01511 5.5 5.26946 5.39464 5.457 5.20711C5.64453 5.01957 5.74989 4.76522 5.74989 4.5C5.74989 4.23478 5.64453 3.98043 5.457 3.79289C5.26946 3.60536 5.01511 3.5 4.74989 3.5C4.48467 3.5 4.23032 3.60536 4.04278 3.79289C3.85525 3.98043 3.74989 4.23478 3.74989 4.5C3.74989 4.76522 3.85525 5.01957 4.04278 5.20711C4.23032 5.39464 4.48467 5.5 4.74989 5.5Z" stroke="var(--stroke-0, black)" stroke-linecap="round" stroke-linejoin="round"/>
</g>
</svg>
