<svg preserveAspectRatio="none" width="100%" height="100%" overflow="visible" style="display: block;" viewBox="0 0 59 54" fill="none" xmlns="http://www.w3.org/2000/svg">
<g id="Group">
<path id="Vector" d="M26.6936 50.6873V29.3273C26.6936 27.8526 27.8889 26.6573 29.3636 26.6573C30.8382 26.6573 32.0336 27.8526 32.0336 29.3273V50.6873C32.0336 52.1619 30.8382 53.3573 29.3636 53.3573C27.8889 53.3573 26.6936 52.1619 26.6936 50.6873Z" fill="var(--fill-0, #9A9CD1)"/>
<path id="Vector_2" d="M19.6709 0.0668617C22.9018 -0.189378 26.1502 0.293011 29.1671 1.47748C32.1836 2.662 34.8923 4.51775 37.0857 6.90353C38.8212 8.79135 40.192 10.9747 41.1508 13.3412H44.0478L44.637 13.3543C47.5796 13.472 50.4253 14.4706 52.7982 16.2303C55.3285 18.1068 57.1868 20.7486 58.1016 23.7631C59.0163 26.7784 58.9365 30.0085 57.8749 32.9752C56.813 35.9415 54.8263 38.4893 52.2062 40.2394L51.9715 40.3777C50.7762 41.0119 49.2716 40.6509 48.5037 39.5015C47.6846 38.2754 48.0154 36.6181 49.2417 35.799L49.8465 35.3557C51.2146 34.2739 52.2567 32.8275 52.8478 31.1761C53.5233 29.2884 53.5757 27.2331 52.9936 25.3144C52.4118 23.3957 51.2277 21.7139 49.6171 20.5195C48.2082 19.4747 46.537 18.8523 44.7986 18.7125L44.0478 18.6812H39.2682C38.0883 18.6808 37.0481 17.906 36.7103 16.7752C36.0151 14.4464 34.7986 12.3066 33.1539 10.5174C31.5086 8.72792 29.4768 7.33559 27.2142 6.44723C24.9517 5.5591 22.5162 5.19647 20.0933 5.38863C17.6702 5.58089 15.3221 6.32158 13.2279 7.55538C11.1336 8.7893 9.34783 10.4857 8.00528 12.5121C6.66307 14.5383 5.79828 16.843 5.47868 19.2523C5.15906 21.6621 5.39394 24.1137 6.16183 26.4201C6.92972 28.7261 8.21113 30.8288 9.91128 32.5659C10.9424 33.6197 10.9258 35.3101 9.87217 36.3412C8.81851 37.3727 7.12813 37.3529 6.09663 36.2996L5.27269 35.4078C3.41261 33.278 1.98886 30.7978 1.09299 28.107C0.0691552 25.0319 -0.240487 21.7638 0.185594 18.5509C0.611726 15.3382 1.76455 12.2649 3.55439 9.56312C5.34449 6.86116 7.72631 4.60111 10.5188 2.95591C13.3109 1.311 16.4404 0.323235 19.6709 0.0668617Z" fill="var(--fill-0, #9A9CD1)"/>
<path id="Vector_3" d="M27.6791 27.2669C28.7278 26.4117 30.2738 26.4721 31.2513 27.4496L41.9313 38.1296L42.1139 38.333C42.9691 39.3815 42.9087 40.9275 41.9313 41.905C40.9538 42.8827 39.4078 42.943 38.3591 42.0876L38.1559 41.905L29.3636 33.1129L20.5713 41.905C19.5286 42.9479 17.8385 42.9479 16.7957 41.905C15.7531 40.8623 15.7531 39.1722 16.7957 38.1296L27.4759 27.4496L27.6791 27.2669Z" fill="var(--fill-0, #9A9CD1)"/>
</g>
</svg>
