<svg preserveAspectRatio="none" width="100%" height="100%" overflow="visible" style="display: block;" viewBox="0 0 12 13" fill="none" xmlns="http://www.w3.org/2000/svg">
<g id="Group">
<g id="Vector">
</g>
<path id="Vector_2" d="M4.09055 2.01133C4.43939 0.9905 5.84989 0.959583 6.26347 1.91858L6.29847 2.01192L6.76922 3.38858C6.8771 3.7043 7.05144 3.99321 7.28047 4.23583C7.5095 4.47845 7.7879 4.66912 8.09689 4.795L8.22347 4.84225L9.60014 5.31242C10.621 5.66125 10.6519 7.07175 9.69347 7.48533L9.60014 7.52033L8.22347 7.99108C7.90764 8.09889 7.61862 8.2732 7.3759 8.50223C7.13318 8.73127 6.94241 9.0097 6.81647 9.31875L6.76922 9.44475L6.29905 10.822C5.95022 11.8428 4.53972 11.8737 4.12672 10.9153L4.09055 10.822L3.62039 9.44533C3.51258 9.12951 3.33827 8.84048 3.10924 8.59776C2.8802 8.35504 2.60177 8.16427 2.29272 8.03833L2.16672 7.99108L0.790054 7.52092C-0.231363 7.17208 -0.26228 5.76158 0.69672 5.34858L0.790054 5.31242L2.16672 4.84225C2.48244 4.73437 2.77135 4.56003 3.01397 4.331C3.25658 4.10197 3.44726 3.82357 3.57314 3.51458L3.62039 3.38858L4.09055 2.01133ZM5.1948 2.38817L4.72464 3.76483C4.56037 4.24626 4.29313 4.68609 3.94153 5.05371C3.58994 5.42132 3.16244 5.70787 2.6888 5.89342L2.54297 5.9465L1.1663 6.41667L2.54297 6.88683C3.0244 7.05111 3.46423 7.31834 3.83184 7.66994C4.19946 8.02153 4.48601 8.44903 4.67155 8.92267L4.72464 9.0685L5.1948 10.4452L5.66497 9.0685C5.82924 8.58707 6.09648 8.14724 6.44807 7.77963C6.79967 7.41201 7.22717 7.12546 7.7008 6.93992L7.84664 6.88742L9.2233 6.41667L7.84664 5.9465C7.36521 5.78223 6.92538 5.51499 6.55776 5.1634C6.19015 4.8118 5.9036 4.3843 5.71805 3.91067L5.66555 3.76483L5.1948 2.38817ZM9.86147 1.05401e-07C9.9706 -1.3765e-07 10.0775 0.0306123 10.1701 0.0883584C10.2627 0.146104 10.3373 0.228668 10.3853 0.326667L10.4133 0.394917L10.6175 0.993417L11.2166 1.19758C11.3259 1.23474 11.4218 1.30353 11.492 1.39523C11.5623 1.48693 11.6037 1.59741 11.611 1.71268C11.6184 1.82795 11.5914 1.94281 11.5334 2.04271C11.4755 2.14261 11.3891 2.22305 11.2854 2.27383L11.2166 2.30183L10.6181 2.506L10.4139 3.10508C10.3767 3.21442 10.3078 3.31024 10.2161 3.38041C10.1244 3.45058 10.0139 3.49194 9.89859 3.49925C9.78333 3.50656 9.66849 3.47949 9.56863 3.42147C9.46876 3.36345 9.38837 3.27709 9.33764 3.17333L9.30964 3.10508L9.10547 2.50658L8.50639 2.30242C8.39702 2.26526 8.30115 2.19647 8.23092 2.10477C8.16069 2.01307 8.11926 1.90259 8.11189 1.78732C8.10452 1.67205 8.13153 1.55719 8.18951 1.45729C8.24749 1.35739 8.33381 1.27695 8.43755 1.22617L8.50639 1.19817L9.10489 0.994L9.30905 0.394917C9.34839 0.279665 9.42281 0.179613 9.52187 0.108791C9.62094 0.0379686 9.73969 -7.30808e-05 9.86147 1.05401e-07Z" fill="var(--fill-0, #FFCD29)"/>
</g>
</svg>
