<svg preserveAspectRatio="none" width="100%" height="100%" overflow="visible" style="display: block;" viewBox="0 0 15 11" fill="none" xmlns="http://www.w3.org/2000/svg">
<g id="Group">
<path id="Vector" d="M2.53783 0.348705C5.7531 -0.116235 9.01855 -0.116235 12.2339 0.348705L12.9222 0.455356L12.9902 0.470404C13.3266 0.562669 13.6334 0.740655 13.8801 0.987295C14.0959 1.2032 14.2591 1.46529 14.3584 1.75282L14.397 1.87714L14.4061 1.91575L14.4918 2.34758C14.8917 4.51265 14.8631 6.73652 14.4061 8.89318L14.397 8.93177C14.3047 9.26818 14.1267 9.57497 13.8801 9.8216C13.6642 10.0375 13.402 10.2006 13.1145 10.2999L12.9902 10.3385L12.9222 10.3536C9.48541 10.923 5.9828 10.9585 2.53783 10.4602L1.8495 10.3536C1.82672 10.3498 1.80373 10.3446 1.78146 10.3385C1.44509 10.2462 1.13825 10.0682 0.891616 9.8216C0.675722 9.60573 0.512597 9.34362 0.413324 9.05606L0.374718 8.93177C0.371248 8.91911 0.368279 8.90598 0.365559 8.89318C-0.121853 6.59287 -0.121853 4.21605 0.365559 1.91575L0.374718 1.87714L0.413324 1.75282C0.512597 1.46529 0.675722 1.2032 0.891616 0.987295C1.13825 0.740661 1.44509 0.562669 1.78146 0.470404L1.8495 0.455356L2.53783 0.348705ZM12.6591 1.77049C9.16675 1.19685 5.60426 1.19678 2.11188 1.77049C2.00941 1.8028 1.91588 1.85862 1.83969 1.93472C1.76015 2.01426 1.70178 2.11281 1.67023 2.22064C1.22933 4.32003 1.22942 6.48822 1.67023 8.58759C1.70174 8.69567 1.76 8.79449 1.83969 8.87422C1.91568 8.95006 2.00907 9.00541 2.11122 9.03777C5.60386 9.61169 9.16648 9.61156 12.6591 9.03777C12.7618 9.00547 12.8557 8.9504 12.932 8.87422C13.0116 8.79456 13.0693 8.6956 13.1008 8.58759C13.5417 6.48815 13.5417 4.3201 13.1008 2.22064C13.0692 2.11288 13.0115 2.01421 12.932 1.93472C12.8556 1.85848 12.7618 1.80277 12.6591 1.77049Z" fill="var(--fill-0, #1D1D1D)"/>
<path id="Vector_2" d="M5.71041 2.81154C5.92045 2.69261 6.17864 2.69586 6.38561 2.82005L9.73561 4.83003L9.80763 4.87975C9.96642 5.00584 10.0608 5.1986 10.0608 5.40449C10.0608 5.61038 9.96642 5.80321 9.80763 5.92924L9.73561 5.97902L6.38561 7.98902C6.17864 8.11317 5.92045 8.11645 5.71041 7.99753C5.50051 7.87853 5.37083 7.65582 5.37083 7.41449V3.39452L5.37672 3.30488C5.40447 3.09907 5.5268 2.91561 5.71041 2.81154ZM6.71083 6.23087L8.08815 5.40449L6.71083 4.57751V6.23087Z" fill="var(--fill-0, #1D1D1D)"/>
</g>
</svg>
