<svg preserveAspectRatio="none" width="100%" height="100%" overflow="visible" style="display: block;" viewBox="0 0 23 25" fill="none" xmlns="http://www.w3.org/2000/svg">
<path id="Vector" d="M2.85714 22.1429H7.14285V15C7.14285 14.5952 7.28 14.2562 7.55428 13.9829C7.82857 13.7095 8.16762 13.5724 8.57143 13.5714H14.2857C14.6905 13.5714 15.03 13.7086 15.3043 13.9829C15.5786 14.2571 15.7152 14.5962 15.7143 15V22.1429H20V9.28571L11.4286 2.85714L2.85714 9.28571V22.1429ZM0 22.1429V9.28571C0 8.83333 0.101428 8.40476 0.304285 8C0.507142 7.59524 0.786667 7.2619 1.14286 7L9.71428 0.571429C10.2143 0.190476 10.7857 0 11.4286 0C12.0714 0 12.6429 0.190476 13.1429 0.571429L21.7143 7C22.0714 7.2619 22.3514 7.59524 22.5543 8C22.7571 8.40476 22.8581 8.83333 22.8571 9.28571V22.1429C22.8571 22.9286 22.5771 23.6014 22.0171 24.1614C21.4571 24.7214 20.7848 25.0009 20 25H14.2857C13.8809 25 13.5419 24.8629 13.2686 24.5886C12.9952 24.3143 12.8581 23.9752 12.8571 23.5714V16.4286H10V23.5714C10 23.9762 9.86285 24.3157 9.58857 24.59C9.31428 24.8643 8.97524 25.0009 8.57143 25H2.85714C2.07143 25 1.39905 24.7205 0.84 24.1614C0.280952 23.6024 0.000952381 22.9295 0 22.1429Z" fill="var(--fill-0, white)"/>
</svg>
