<svg preserveAspectRatio="none" width="100%" height="100%" overflow="visible" style="display: block;" viewBox="0 0 15 15" fill="none" xmlns="http://www.w3.org/2000/svg">
<g id="Group">
<path id="Vector" d="M13.4089 0.0561176C13.5626 0.00247744 13.7266 -0.0130244 13.8871 0.010973L13.9571 0.0240581L14.0259 0.041726C14.1621 0.0824486 14.288 0.151995 14.3955 0.245212L14.4478 0.293626L14.4963 0.345316C14.5894 0.452691 14.6584 0.578825 14.6991 0.714995L14.7174 0.784354L14.7305 0.854362C14.7544 1.01442 14.7381 1.17795 14.6847 1.33134L14.6853 1.332L10.3303 14.062C10.2639 14.2558 10.1397 14.4255 9.97445 14.5468C9.80909 14.6681 9.61017 14.7359 9.40521 14.7412C9.20033 14.7464 8.99872 14.6889 8.82747 14.5763C8.67746 14.4776 8.55699 14.3407 8.47807 14.1805L8.44665 14.1104L6.31625 8.79687L6.28811 8.73536C6.25675 8.6756 6.21628 8.62099 6.16838 8.57309C6.10439 8.50917 6.02792 8.45885 5.94397 8.42522L0.630418 6.29415C0.440212 6.21784 0.277891 6.08525 0.165217 5.91404C0.0525296 5.74272 -0.00491749 5.54064 0.000329951 5.33564L0.00491274 5.25909C0.0230965 5.08157 0.0885422 4.91167 0.194657 4.76705L0.241771 4.70686C0.35805 4.57135 0.509061 4.46934 0.678839 4.41112L13.4089 0.0561176ZM1.96649 5.38602L6.4412 7.18076H6.44187C6.69386 7.2816 6.92307 7.43262 7.11515 7.62437C7.28326 7.79221 7.42007 7.98831 7.5195 8.20345L7.55943 8.29631L7.5601 8.29765L9.35416 12.7737L13.1962 1.54464L1.96649 5.38602Z" fill="var(--fill-0, white)"/>
<path id="Vector_2" d="M13.4837 0.310886C13.7453 0.0493644 14.1695 0.0492639 14.4311 0.310886C14.6926 0.5725 14.6926 0.996691 14.4311 1.25831L7.10102 8.58776L7.04997 8.63352C6.78693 8.84799 6.39886 8.83284 6.15364 8.58776C5.89197 8.32606 5.89195 7.90128 6.15364 7.63964L13.4837 0.310886Z" fill="var(--fill-0, white)"/>
</g>
</svg>
