<svg preserveAspectRatio="none" width="100%" height="100%" overflow="visible" style="display: block;" viewBox="0 0 16 11" fill="none" xmlns="http://www.w3.org/2000/svg">
<path id="Exclude" d="M5.44825 8.42683C6.72891 7.34456 8.60509 7.34456 9.88575 8.42683C9.95011 8.48504 9.98749 8.56764 9.98926 8.65437C9.99093 8.74102 9.95645 8.82413 9.89454 8.88484L7.88965 10.9073C7.83087 10.9667 7.75061 11.0001 7.667 11.0001C7.58341 11.0001 7.5031 10.9667 7.44434 10.9073L5.43848 8.88484C5.37689 8.82414 5.34302 8.7408 5.34473 8.65437C5.34657 8.56769 5.3839 8.48499 5.44825 8.42683ZM2.77247 5.72957C5.53159 3.16519 9.80432 3.16526 12.5635 5.72957C12.6258 5.7897 12.6622 5.87252 12.6631 5.95906C12.6638 6.04541 12.6293 6.12825 12.5684 6.18953L11.4092 7.36043C11.2898 7.47959 11.0971 7.48214 10.9746 7.36629C10.0685 6.54651 8.88934 6.0918 7.667 6.09187C6.44549 6.0924 5.26776 6.54707 4.36231 7.36629C4.23975 7.48242 4.04615 7.47986 3.92676 7.36043L2.76856 6.18953C2.70747 6.12832 2.67312 6.04548 2.67383 5.95906C2.67465 5.87258 2.71026 5.78968 2.77247 5.72957ZM0.0966849 3.03914C4.3286 -1.01302 11.0054 -1.01307 15.2373 3.03914C15.2985 3.09932 15.3325 3.18189 15.333 3.26765C15.3335 3.35342 15.2998 3.43628 15.2393 3.49714L14.0791 4.66707C13.9595 4.78716 13.765 4.78824 13.6436 4.67C12.0312 3.1386 9.89158 2.28435 7.667 2.28425C5.44212 2.28427 3.30199 3.13837 1.68946 4.67C1.56817 4.78837 1.3744 4.78719 1.25489 4.66707L0.0937552 3.49714C0.0333183 3.43626 -0.000482792 3.3534 5.21173e-06 3.26765C0.000570487 3.1818 0.0353827 3.09929 0.0966849 3.03914Z" fill="var(--fill-0, black)"/>
</svg>
