<svg preserveAspectRatio="none" width="100%" height="100%" overflow="visible" style="display: block;" viewBox="0 0 25 25" fill="none" xmlns="http://www.w3.org/2000/svg">
<path id="Vector" fill-rule="evenodd" clip-rule="evenodd" d="M8.33333 2.77778C8.33333 2.04107 8.62599 1.33453 9.14693 0.813592C9.66786 0.292658 10.3744 0 11.1111 0H13.8889C14.6256 0 15.3321 0.292658 15.8531 0.813592C16.374 1.33453 16.6667 2.04107 16.6667 2.77778V8.33333H22.2222C22.9589 8.33333 23.6655 8.62599 24.1864 9.14693C24.7073 9.66786 25 10.3744 25 11.1111V13.8889C25 14.6256 24.7073 15.3321 24.1864 15.8531C23.6655 16.374 22.9589 16.6667 22.2222 16.6667H16.6667V22.2222C16.6667 22.9589 16.374 23.6655 15.8531 24.1864C15.3321 24.7073 14.6256 25 13.8889 25H11.1111C10.3744 25 9.66786 24.7073 9.14693 24.1864C8.62599 23.6655 8.33333 22.9589 8.33333 22.2222V16.6667H2.77778C2.04107 16.6667 1.33453 16.374 0.813592 15.8531C0.292658 15.3321 0 14.6256 0 13.8889V11.1111C0 10.3744 0.292658 9.66786 0.813592 9.14693C1.33453 8.62599 2.04107 8.33333 2.77778 8.33333H8.33333V2.77778ZM13.8889 2.77778H11.1111V9.72222C11.1111 10.0906 10.9648 10.4438 10.7043 10.7043C10.4438 10.9648 10.0906 11.1111 9.72222 11.1111H2.77778V13.8889H9.72222C10.0906 13.8889 10.4438 14.0352 10.7043 14.2957C10.9648 14.5562 11.1111 14.9094 11.1111 15.2778V22.2222H13.8889V15.2778C13.8889 14.9094 14.0352 14.5562 14.2957 14.2957C14.5562 14.0352 14.9094 13.8889 15.2778 13.8889H22.2222V11.1111H15.2778C14.9094 11.1111 14.5562 10.9648 14.2957 10.7043C14.0352 10.4438 13.8889 10.0906 13.8889 9.72222V2.77778Z" fill="var(--fill-0, #636AE8)"/>
</svg>
