<svg preserveAspectRatio="none" width="100%" height="100%" overflow="visible" style="display: block;" viewBox="0 0 16 16" fill="none" xmlns="http://www.w3.org/2000/svg">
<g id="Frame">
<path id="Vector" d="M9.05538 2.35886C10.2058 1.75947 11.7067 1.79682 12.8987 2.73639C12.957 2.72232 13.0245 2.70443 13.1002 2.67881C13.2866 2.61584 13.4869 2.52836 13.6767 2.43541C13.8648 2.34328 14.0333 2.25033 14.155 2.18024C14.2155 2.14536 14.2638 2.11617 14.2963 2.09649C14.3125 2.08666 14.3251 2.07907 14.333 2.07424C14.3367 2.07194 14.3392 2.07 14.3408 2.06901H14.3421C14.5815 1.91779 14.8906 1.93295 15.1135 2.10761C15.3084 2.2604 15.4006 2.50603 15.3608 2.7449L15.3354 2.84697V2.84827L15.3347 2.84959C15.3342 2.85089 15.3334 2.85284 15.3327 2.85482C15.3313 2.85876 15.3297 2.86405 15.3275 2.87053C15.3229 2.88365 15.3167 2.90198 15.3085 2.92483C15.2919 2.97071 15.2674 3.03574 15.2359 3.11523C15.1732 3.27381 15.0801 3.49359 14.9578 3.7427C14.7562 4.15332 14.4589 4.67237 14.0666 5.13112C14.9308 12.1154 7.34226 17.1671 1.22477 13.4308L0.929677 13.2437C0.678602 13.0774 0.56995 12.7633 0.663379 12.4769C0.756878 12.1908 1.02945 12.0021 1.33011 12.0156C2.24185 12.0571 3.14413 11.8677 3.92112 11.4791C0.999163 9.86691 -0.286314 6.05321 1.38114 2.98502L1.42498 2.91501C1.53601 2.75981 1.70953 2.65799 1.90196 2.63825C2.12186 2.6158 2.33889 2.70374 2.48167 2.87249C3.66672 4.27286 5.43038 5.15297 7.25737 5.29666C7.26474 3.96145 8.01615 2.90035 9.05538 2.35886ZM12.2327 3.92852C11.4488 3.19706 10.4363 3.15113 9.675 3.54772C8.92815 3.93682 8.42083 4.75112 8.65499 5.8443C8.6966 6.03873 8.65003 6.24202 8.52736 6.39849C8.40461 6.55498 8.21842 6.64913 8.01963 6.65497C5.89203 6.71751 3.76904 5.92277 2.19378 4.49645C1.41667 7.02933 2.8708 9.91053 5.51237 10.7031C5.74588 10.7732 5.92326 10.9648 5.97496 11.203C6.02016 11.4115 5.96305 11.6271 5.82513 11.7853L5.76101 11.8494C5.13709 12.3953 4.39856 12.7953 3.60771 13.0468C8.43885 14.5236 13.5628 10.4205 12.6985 5.01858C12.6647 4.80657 12.7346 4.59138 12.8863 4.43952C13.0081 4.31773 13.1214 4.17944 13.2278 4.03452C13.0543 4.07725 12.8711 4.10911 12.69 4.10911C12.5203 4.10911 12.3567 4.04431 12.2327 3.92852Z" fill="var(--fill-0, #1D1D1D)"/>
</g>
</svg>
