<svg preserveAspectRatio="none" width="100%" height="100%" overflow="visible" style="display: block;" viewBox="0 0 16 2" fill="none" xmlns="http://www.w3.org/2000/svg">
<g id="Group">
<path id="Vector" d="M14.1421 5.96046e-08H0.942809C0.42211 5.96046e-08 0 0.42211 0 0.942809V0.942811C0 1.46351 0.42211 1.88562 0.942809 1.88562H14.1421C14.6628 1.88562 15.0849 1.46351 15.0849 0.942809C15.0849 0.42211 14.6628 5.96046e-08 14.1421 5.96046e-08Z" fill="var(--fill-0, #EBEBEA)"/>
<path id="Vector_2" d="M11.9309 5.96046e-08H6.27402C5.75332 5.96046e-08 5.33121 0.42211 5.33121 0.942809V0.942811C5.33121 1.46351 5.75332 1.88562 6.27402 1.88562H11.9309C12.4516 1.88562 12.8737 1.46351 12.8737 0.942809C12.8737 0.42211 12.4516 5.96046e-08 11.9309 5.96046e-08Z" fill="var(--fill-0, #EBEBEA)"/>
</g>
</svg>
