<svg width="16" height="16" viewBox="0 0 16 16" fill="none" xmlns="http://www.w3.org/2000/svg">
<path d="M13.2787 1.94948C13.2767 1.9476 13.2745 1.94635 13.2725 1.94448C10.7582 -0.213899 7.20599 -0.5969 4.26636 0.904225C1.32874 2.40448 -0.343637 5.7501 0.0594884 8.9926C0.340988 11.2585 1.60436 13.2454 3.40899 14.522C3.40899 14.522 8.38361 10.0799 9.70461 8.50348C10.9436 7.02385 13.6489 2.29873 13.6489 2.29873C13.5292 2.17839 13.4058 2.06196 13.2786 1.9496L13.2787 1.94948Z" fill="#E74A99"/>
<path d="M3.40918 14.5217C4.25204 15.119 5.20108 15.5501 6.20543 15.7918C9.39143 16.5547 12.8267 15.1693 14.6492 12.4686C16.7973 9.28446 16.3249 4.98383 13.6491 2.29858L8.55555 8.37871L3.40918 14.5216V14.5217Z" fill="#27AAE1"/>
<path d="M8.25621 5.99301C8.25621 5.99301 7.49371 4.32476 5.90671 4.70438C4.31983 5.08426 1.00558 8.32538 8.00733 12.3578H8.00171C15.0033 8.32526 11.6895 5.08438 10.1025 4.70438C8.51533 4.32488 7.75296 5.99301 7.75296 5.99301H8.25621Z" fill="white"/>
</svg>
