<svg preserveAspectRatio="none" width="100%" height="100%" overflow="visible" style="display: block;" viewBox="0 0 15 15" fill="none" xmlns="http://www.w3.org/2000/svg">
<g id="Group">
<path id="Vector" d="M13.4 4.02C13.4 2.53988 12.2001 1.34 10.72 1.34H4.02C2.53988 1.34 1.34 2.53988 1.34 4.02V10.72C1.34 12.2001 2.53988 13.4 4.02 13.4H10.72C12.2001 13.4 13.4 12.2001 13.4 10.72V4.02ZM14.74 10.72C14.74 12.9402 12.9402 14.74 10.72 14.74H4.02C1.79981 14.74 0 12.9402 0 10.72V4.02C0 1.79981 1.79981 0 4.02 0H10.72C12.9402 0 14.74 1.79981 14.74 4.02V10.72Z" fill="var(--fill-0, #1D1D1D)"/>
<path id="Vector_2" d="M5.85935 4.36403C6.48471 4.03957 7.19665 3.92047 7.89352 4.0238L8.02638 4.0467C8.68633 4.17185 9.29429 4.49284 9.77073 4.96926C10.279 5.47749 10.6108 6.13547 10.7162 6.84641L10.7326 6.97733C10.8035 7.63205 10.6801 8.29435 10.3759 8.88066C10.0515 9.50604 9.5377 10.0131 8.90837 10.3299C8.27904 10.6467 7.56583 10.7571 6.87023 10.6453C6.17457 10.5334 5.53187 10.2046 5.03362 9.70637C4.53537 9.20809 4.20665 8.56543 4.09471 7.86977C3.98283 7.17417 4.09333 6.46096 4.41008 5.83162C4.72687 5.20229 5.23395 4.68854 5.85935 4.36403ZM7.69728 5.34941C7.27906 5.28739 6.8516 5.35883 6.47634 5.55355C6.10107 5.74827 5.79686 6.05661 5.60678 6.43423C5.41674 6.81184 5.35054 7.23977 5.4177 7.65711C5.48486 8.07452 5.6821 8.45997 5.98105 8.75893C6.27996 9.05788 6.66548 9.25513 7.08289 9.32233C7.50023 9.38946 7.92816 9.32327 8.30577 9.13319C8.68339 8.94311 8.99172 8.63893 9.18642 8.26366C9.3568 7.93536 9.43271 7.56733 9.40759 7.20044L9.39057 7.04272C9.32732 6.6162 9.1282 6.22157 8.82328 5.91668C8.55655 5.64991 8.22109 5.46412 7.8556 5.37951L7.69728 5.34941Z" fill="var(--fill-0, #1D1D1D)"/>
<path id="Vector_3" d="M11.0466 3.03L11.1152 3.03327C11.4531 3.06759 11.7166 3.3531 11.7166 3.7C11.7166 4.0469 11.4531 4.33241 11.1152 4.36673L11.0466 4.37H11.04C10.67 4.37 10.37 4.07003 10.37 3.7C10.37 3.32997 10.67 3.03 11.04 3.03H11.0466Z" fill="var(--fill-0, #1D1D1D)"/>
</g>
</svg>
