<svg preserveAspectRatio="none" width="100%" height="100%" overflow="visible" style="display: block;" viewBox="0 0 19 21" fill="none" xmlns="http://www.w3.org/2000/svg">
<g id="Group">
<path id="Vector" d="M10.0098 17.8209C10.2815 17.4426 10.8 17.3249 11.2111 17.563C11.6222 17.8012 11.7803 18.3111 11.5897 18.7364L11.5468 18.8199C11.3055 19.2394 10.9584 19.5876 10.5406 19.8298C10.1228 20.072 9.64822 20.1998 9.16571 20.1999C8.68311 20.1999 8.20876 20.072 7.79079 19.8298C7.42496 19.6179 7.1134 19.3246 6.87954 18.9736L6.78376 18.8199L6.74079 18.7364C6.55028 18.3111 6.70842 17.8012 7.11944 17.563C7.53047 17.3249 8.049 17.4426 8.32068 17.8209L8.37174 17.8999L8.43801 18.0006C8.51097 18.096 8.60291 18.1763 8.7074 18.2368C8.84664 18.3174 9.00494 18.3599 9.16571 18.3599C9.32649 18.3598 9.48479 18.3175 9.62402 18.2368C9.76326 18.1562 9.87838 18.0397 9.95877 17.8999L10.0098 17.8209Z" fill="var(--fill-0, #242524)"/>
<path id="Vector_2" d="M13.7483 6.44C13.7483 5.22016 13.2658 4.05029 12.4065 3.18765C11.547 2.32499 10.3807 1.84 9.16522 1.84C7.94978 1.84006 6.78425 2.32504 5.92481 3.18765C5.06539 4.05031 4.58211 5.22006 4.58211 6.44L4.57852 6.8389C4.53928 8.79382 4.20959 10.1912 3.69592 11.2826C3.15469 12.4325 2.43648 13.1749 1.83314 13.8H16.4982C15.8936 13.1745 15.1763 12.4318 14.6354 11.2826C14.0873 10.1182 13.7483 8.60577 13.7483 6.44ZM15.5815 6.44C15.5815 8.41312 15.8894 9.64059 16.2923 10.4965C16.5951 11.1399 16.9684 11.6125 17.3932 12.075L17.8346 12.5404L17.8543 12.562C18.0934 12.8257 18.2512 13.1533 18.3081 13.5053C18.3649 13.8571 18.3192 14.218 18.1757 14.5439C18.0319 14.8699 17.7966 15.1472 17.4989 15.3417C17.2383 15.5119 16.9393 15.6131 16.6306 15.6355L16.4982 15.64H1.83225C1.47695 15.6397 1.12905 15.5357 0.831489 15.3408C0.533918 15.146 0.298998 14.8684 0.155666 14.5421C0.012371 14.2158 -0.0332949 13.8546 0.0240762 13.5027C0.0814749 13.1508 0.239482 12.8235 0.478801 12.5601L0.497601 12.5395L0.938907 12.075C1.36314 11.6127 1.73529 11.1399 2.03813 10.4965C2.41577 9.69404 2.70998 8.56511 2.74529 6.80117L2.74887 6.44C2.74887 4.732 3.42535 3.09356 4.62865 1.88582C5.83186 0.678353 7.4637 6.44e-05 9.16522 0C10.8668 0 12.4993 0.67816 13.7027 1.88582C14.9059 3.09356 15.5815 4.732 15.5815 6.44Z" fill="var(--fill-0, #242524)"/>
</g>
</svg>
