<svg preserveAspectRatio="none" width="100%" height="100%" overflow="visible" style="display: block;" viewBox="0 0 25 21" fill="none" xmlns="http://www.w3.org/2000/svg">
<path id="Vector" d="M5.45208 5.96875C6.20322 4.77869 7.2435 3.79824 8.47591 3.11883C9.70832 2.43942 11.0927 2.08318 12.5 2.08333C13.9075 2.08301 15.2921 2.43916 16.5247 3.11858C17.7573 3.798 18.7977 4.77855 19.549 5.96875L21.3094 4.85417C20.3702 3.36716 19.0698 2.14215 17.5294 1.29336C15.989 0.444568 14.2588 -0.000378788 12.5 2.41956e-07C10.7414 -0.000202909 9.01139 0.444828 7.47119 1.29361C5.93099 2.1424 4.63075 3.3673 3.69167 4.85417L5.45208 5.96875ZM12.5 18.75C11.0927 18.7502 9.70832 18.3939 8.47591 17.7145C7.2435 17.0351 6.20322 16.0546 5.45208 14.8646L3.69167 15.9792C4.63075 17.466 5.93099 18.6909 7.47119 19.5397C9.01139 20.3885 10.7414 20.8335 12.5 20.8333C14.2588 20.8337 15.989 20.3888 17.5294 19.54C19.0698 18.6912 20.3702 17.4662 21.3094 15.9792L19.549 14.8646C18.7977 16.0548 17.7573 17.0353 16.5247 17.7148C15.2921 18.3942 13.9075 18.7503 12.5 18.75ZM12.5 6.25C12.7763 6.25 13.0412 6.35975 13.2366 6.5551C13.4319 6.75045 13.5417 7.0154 13.5417 7.29167C13.5417 7.56793 13.4319 7.83289 13.2366 8.02824C13.0412 8.22359 12.7763 8.33333 12.5 8.33333C12.2237 8.33333 11.9588 8.22359 11.7634 8.02824C11.5681 7.83289 11.4583 7.56793 11.4583 7.29167C11.4583 7.0154 11.5681 6.75045 11.7634 6.5551C11.9588 6.35975 12.2237 6.25 12.5 6.25ZM12.5 10.4167C13.3288 10.4167 14.1237 10.0874 14.7097 9.50138C15.2958 8.91533 15.625 8.12047 15.625 7.29167C15.625 6.46287 15.2958 5.66801 14.7097 5.08196C14.1237 4.49591 13.3288 4.16667 12.5 4.16667C11.6712 4.16667 10.8763 4.49591 10.2903 5.08196C9.70424 5.66801 9.375 6.46287 9.375 7.29167C9.375 8.12047 9.70424 8.91533 10.2903 9.50138C10.8763 10.0874 11.6712 10.4167 12.5 10.4167ZM12.5 13.5417C11.9475 13.5417 11.4176 13.7612 11.0269 14.1519C10.6362 14.5426 10.4167 15.0725 10.4167 15.625H8.33333C8.33333 14.5199 8.77232 13.4601 9.55372 12.6787C10.3351 11.8973 11.3949 11.4583 12.5 11.4583C13.6051 11.4583 14.6649 11.8973 15.4463 12.6787C16.2277 13.4601 16.6667 14.5199 16.6667 15.625H14.5833C14.5833 15.0725 14.3638 14.5426 13.9731 14.1519C13.5824 13.7612 13.0525 13.5417 12.5 13.5417ZM3.125 9.375C2.84873 9.375 2.58378 9.48475 2.38843 9.6801C2.19308 9.87545 2.08333 10.1404 2.08333 10.4167C2.08333 10.6929 2.19308 10.9579 2.38843 11.1532C2.58378 11.3486 2.84873 11.4583 3.125 11.4583C3.40127 11.4583 3.66622 11.3486 3.86157 11.1532C4.05692 10.9579 4.16667 10.6929 4.16667 10.4167C4.16667 10.1404 4.05692 9.87545 3.86157 9.6801C3.66622 9.48475 3.40127 9.375 3.125 9.375ZM0 10.4167C0 9.58787 0.32924 8.79301 0.915291 8.20696C1.50134 7.62091 2.2962 7.29167 3.125 7.29167C3.9538 7.29167 4.74866 7.62091 5.33471 8.20696C5.92076 8.79301 6.25 9.58787 6.25 10.4167C6.25 11.2455 5.92076 12.0403 5.33471 12.6264C4.74866 13.2124 3.9538 13.5417 3.125 13.5417C2.2962 13.5417 1.50134 13.2124 0.915291 12.6264C0.32924 12.0403 0 11.2455 0 10.4167ZM20.8333 10.4167C20.8333 10.1404 20.9431 9.87545 21.1384 9.6801C21.3338 9.48475 21.5987 9.375 21.875 9.375C22.1513 9.375 22.4162 9.48475 22.6116 9.6801C22.8069 9.87545 22.9167 10.1404 22.9167 10.4167C22.9167 10.6929 22.8069 10.9579 22.6116 11.1532C22.4162 11.3486 22.1513 11.4583 21.875 11.4583C21.5987 11.4583 21.3338 11.3486 21.1384 11.1532C20.9431 10.9579 20.8333 10.6929 20.8333 10.4167ZM21.875 7.29167C21.0462 7.29167 20.2513 7.62091 19.6653 8.20696C19.0792 8.79301 18.75 9.58787 18.75 10.4167C18.75 11.2455 19.0792 12.0403 19.6653 12.6264C20.2513 13.2124 21.0462 13.5417 21.875 13.5417C22.7038 13.5417 23.4987 13.2124 24.0847 12.6264C24.6708 12.0403 25 11.2455 25 10.4167C25 9.58787 24.6708 8.79301 24.0847 8.20696C23.4987 7.62091 22.7038 7.29167 21.875 7.29167Z" fill="var(--fill-0, white)"/>
</svg>
