<svg width="16" height="16" viewBox="0 0 16 16" fill="none" xmlns="http://www.w3.org/2000/svg">
<g filter="url(#filter0_i_552_1743)">
<path d="M7.9995 14.999C12.6665 14.999 14.999 11.865 14.999 7.999C14.999 4.134 12.6665 1 7.999 1C3.3325 1 1 4.134 1 7.9995C1 11.865 3.332 14.999 7.9995 14.999Z" fill="url(#paint0_radial_552_1743)"/>
</g>
<path d="M7.9995 14.999C12.6665 14.999 14.999 11.865 14.999 7.999C14.999 4.134 12.6665 1 7.999 1C3.3325 1 1 4.134 1 7.9995C1 11.865 3.332 14.999 7.9995 14.999Z" fill="url(#paint1_radial_552_1743)"/>
<path d="M7.9995 14.999C12.6665 14.999 14.999 11.865 14.999 7.999C14.999 4.134 12.6665 1 7.999 1C3.3325 1 1 4.134 1 7.9995C1 11.865 3.332 14.999 7.9995 14.999Z" fill="url(#paint2_radial_552_1743)"/>
<g opacity="0.9" filter="url(#filter1_f_552_1743)">
<path d="M11.2577 3.74339L11.2574 3.74375C10.9678 4.03332 10.9678 4.50281 11.2574 4.79239L12.2264 5.76148C12.516 6.05105 12.9855 6.05105 13.2751 5.76148L13.2754 5.76112C13.565 5.47155 13.565 5.00206 13.2754 4.71248L12.3063 3.74339C12.0168 3.45382 11.5473 3.45382 11.2577 3.74339Z" fill="url(#paint3_radial_552_1743)"/>
</g>
<path d="M4 11.25C4 10.5596 3.44036 10 2.75 10C2.05964 10 1.5 10.5596 1.5 11.25V12.25C1.5 12.9404 2.05964 13.5 2.75 13.5C3.44036 13.5 4 12.9404 4 12.25V11.25Z" fill="url(#paint4_radial_552_1743)"/>
<path d="M15 3.25C15 2.55964 14.4404 2 13.75 2C13.0596 2 12.5 2.55964 12.5 3.25V4.25C12.5 4.94036 13.0596 5.5 13.75 5.5C14.4404 5.5 15 4.94036 15 4.25V3.25Z" fill="url(#paint5_radial_552_1743)"/>
<g filter="url(#filter2_f_552_1743)">
<path fill-rule="evenodd" clip-rule="evenodd" d="M4.22452 5.95538C4.21464 5.87318 4.23779 5.79041 4.28888 5.72526C4.33997 5.66011 4.41483 5.61789 4.49702 5.60788C5.10602 5.53388 5.40502 5.24638 5.56102 4.99538C5.64775 4.85372 5.70758 4.69727 5.73752 4.53388L5.74102 4.50788V4.50388C5.74799 4.42127 5.78748 4.3448 5.85082 4.29131C5.91416 4.23781 5.99616 4.21167 6.07877 4.21863C6.16139 4.2256 6.23785 4.26509 6.29135 4.32843C6.34484 4.39177 6.37099 4.47377 6.36402 4.55638V4.55988L6.36352 4.56538C6.36115 4.58832 6.35798 4.61117 6.35402 4.63388C6.31138 4.87885 6.22228 5.11339 6.09152 5.32488C5.84402 5.72438 5.38402 6.12988 4.57202 6.22838C4.48974 6.23826 4.40691 6.21504 4.34174 6.16385C4.27657 6.11265 4.23441 6.03767 4.22452 5.95538Z" fill="url(#paint6_radial_552_1743)" fill-opacity="0.75"/>
</g>
<path d="M5.68305 4.21899C5.68305 4.21899 5.68305 5.53899 4.22205 5.66399" stroke="url(#paint7_radial_552_1743)" stroke-width="0.625" stroke-linecap="round" stroke-linejoin="round"/>
<g filter="url(#filter3_f_552_1743)">
<path fill-rule="evenodd" clip-rule="evenodd" d="M11.9065 5.95538C11.9164 5.8731 11.8931 5.79027 11.8419 5.7251C11.7908 5.65993 11.7158 5.61777 11.6335 5.60788C11.025 5.53388 10.726 5.24638 10.57 4.99538C10.4833 4.85372 10.4234 4.69727 10.3935 4.53388L10.39 4.50788L10.3895 4.50388C10.3825 4.42127 10.343 4.3448 10.2797 4.29131C10.2163 4.23781 10.1344 4.21167 10.0517 4.21863C9.96912 4.2256 9.89265 4.26509 9.83916 4.32843C9.78566 4.39177 9.75952 4.47377 9.76649 4.55638V4.55988L9.76749 4.56538C9.7697 4.58831 9.7727 4.61116 9.77649 4.63388C9.81913 4.87885 9.90823 5.11339 10.039 5.32488C10.287 5.72438 10.747 6.12988 11.559 6.22838C11.6413 6.23826 11.7241 6.21504 11.7893 6.16385C11.8544 6.11265 11.8966 6.03767 11.9065 5.95538Z" fill="url(#paint8_radial_552_1743)" fill-opacity="0.75"/>
</g>
<path d="M10.316 4.21899C10.316 4.21899 10.316 5.53899 11.777 5.66399" stroke="url(#paint9_radial_552_1743)" stroke-width="0.625" stroke-linecap="round" stroke-linejoin="round"/>
<g filter="url(#filter4_f_552_1743)">
<path d="M9.68498 6.72656C9.3678 6.8919 9.10191 7.14089 8.91611 7.44655C8.73032 7.7522 8.63172 8.10287 8.63098 8.46056C8.63098 9.54356 9.51798 10.4221 10.6125 10.4221C11.707 10.4221 12.5935 9.54356 12.5935 8.46056C12.5935 8.18542 12.5352 7.9134 12.4226 7.66237C12.31 7.41135 12.1455 7.18699 11.94 7.00406C11.679 7.08906 11.4 7.13406 11.1095 7.13406C10.6055 7.13543 10.1115 6.99415 9.68448 6.72656" fill="#FB6E27" fill-opacity="0.75"/>
</g>
<g filter="url(#filter5_f_552_1743)">
<path d="M5.95099 6.72656C6.26818 6.8919 6.53407 7.14089 6.71986 7.44655C6.90565 7.7522 7.00426 8.10287 7.00499 8.46056C7.00499 9.54356 6.11749 10.4221 5.02349 10.4221C3.92949 10.4221 3.04199 9.54356 3.04199 8.46056C3.04199 7.88256 3.29399 7.36306 3.69549 7.00406C3.95649 7.08906 4.23549 7.13406 4.52599 7.13406C5.05149 7.13406 5.54099 6.98456 5.95099 6.72656Z" fill="#B24B35"/>
</g>
<path d="M9.75695 6.22656C9.35908 6.43727 9.03875 6.76934 8.84249 7.17452C8.64622 7.57971 8.58424 8.03692 8.66555 8.47973C8.74686 8.92255 8.96723 9.32791 9.29464 9.63694C9.62205 9.94597 10.0395 10.1426 10.4862 10.1982C10.933 10.2538 11.3859 10.1655 11.7791 9.9462C12.1722 9.72688 12.4853 9.38791 12.6726 8.97854C12.86 8.56918 12.912 8.11073 12.8211 7.66979C12.7302 7.22885 12.501 6.82838 12.167 6.52656C11.8804 6.61986 11.5808 6.66711 11.2795 6.66656C10.7404 6.66789 10.2122 6.51524 9.75695 6.22656Z" fill="white"/>
<path d="M9.97052 9.10949C10.5098 9.10949 10.947 8.6723 10.947 8.13299C10.947 7.59369 10.5098 7.15649 9.97052 7.15649C9.43121 7.15649 8.99402 7.59369 8.99402 8.13299C8.99402 8.6723 9.43121 9.10949 9.97052 9.10949Z" fill="#402931"/>
<path d="M6.24195 6.22656C6.63981 6.43727 6.96014 6.76934 7.15641 7.17452C7.35268 7.57971 7.41466 8.03692 7.33335 8.47973C7.25203 8.92255 7.03167 9.32791 6.70426 9.63694C6.37684 9.94597 5.95944 10.1426 5.51267 10.1982C5.06589 10.2538 4.61303 10.1655 4.21984 9.9462C3.82666 9.72688 3.51364 9.38791 3.32625 8.97854C3.13886 8.56918 3.08685 8.11073 3.17779 7.66979C3.26873 7.22885 3.49788 6.82838 3.83195 6.52656C4.11852 6.61986 4.41807 6.66711 4.71944 6.66656C5.25849 6.66789 5.78671 6.51524 6.24195 6.22656Z" fill="white"/>
<path d="M6.02802 9.10949C5.48871 9.10949 5.05152 8.6723 5.05152 8.13299C5.05152 7.59369 5.48871 7.15649 6.02802 7.15649C6.56732 7.15649 7.00452 7.59369 7.00452 8.13299C7.00452 8.6723 6.56732 9.10949 6.02802 9.10949Z" fill="#402931"/>
<path d="M8.58749 10.4766H7.41099C6.63779 10.4766 6.01099 11.1034 6.01099 11.8766V11.9206C6.01099 12.6938 6.63779 13.3206 7.41099 13.3206H8.58749C9.36068 13.3206 9.98749 12.6938 9.98749 11.9206V11.8766C9.98749 11.1034 9.36068 10.4766 8.58749 10.4766Z" fill="url(#paint10_linear_552_1743)"/>
<path d="M8.00003 14.25C9.52403 14.25 9.76703 12.928 9.81453 12.547C9.85053 12.2385 9.68753 11.8805 9.50953 11.775C9.33153 11.67 8.79853 11.572 7.99953 11.572C7.20153 11.572 6.67203 11.67 6.49053 11.775C6.30903 11.88 6.14553 12.2385 6.18553 12.547C6.23303 12.928 6.47553 14.25 8.00003 14.25Z" fill="url(#paint11_radial_552_1743)"/>
<g opacity="0.5" filter="url(#filter6_f_552_1743)">
<path d="M8.71997 13.3429C9.08297 13.1614 9.44597 12.7984 9.44597 12.2539" stroke="white" stroke-width="0.5"/>
</g>
<defs>
<filter id="filter0_i_552_1743" x="1" y="0" width="14.999" height="14.999" filterUnits="userSpaceOnUse" color-interpolation-filters="sRGB">
<feFlood flood-opacity="0" result="BackgroundImageFix"/>
<feBlend mode="normal" in="SourceGraphic" in2="BackgroundImageFix" result="shape"/>
<feColorMatrix in="SourceAlpha" type="matrix" values="0 0 0 0 0 0 0 0 0 0 0 0 0 0 0 0 0 0 127 0" result="hardAlpha"/>
<feOffset dx="1" dy="-1"/>
<feGaussianBlur stdDeviation="1"/>
<feComposite in2="hardAlpha" operator="arithmetic" k2="-1" k3="1"/>
<feColorMatrix type="matrix" values="0 0 0 0 0 0 0 0 0 0 0 0 0 0 0 0 0 0 0.08 0"/>
<feBlend mode="normal" in2="shape" result="effect1_innerShadow_552_1743"/>
</filter>
<filter id="filter1_f_552_1743" x="10.5402" y="3.02612" width="3.45251" height="3.45264" filterUnits="userSpaceOnUse" color-interpolation-filters="sRGB">
<feFlood flood-opacity="0" result="BackgroundImageFix"/>
<feBlend mode="normal" in="SourceGraphic" in2="BackgroundImageFix" result="shape"/>
<feGaussianBlur stdDeviation="0.25" result="effect1_foregroundBlur_552_1743"/>
</filter>
<filter id="filter2_f_552_1743" x="3.97229" y="3.96753" width="2.64282" height="2.51318" filterUnits="userSpaceOnUse" color-interpolation-filters="sRGB">
<feFlood flood-opacity="0" result="BackgroundImageFix"/>
<feBlend mode="normal" in="SourceGraphic" in2="BackgroundImageFix" result="shape"/>
<feGaussianBlur stdDeviation="0.125" result="effect1_foregroundBlur_552_1743"/>
</filter>
<filter id="filter3_f_552_1743" x="9.51538" y="3.96753" width="2.64331" height="2.51318" filterUnits="userSpaceOnUse" color-interpolation-filters="sRGB">
<feFlood flood-opacity="0" result="BackgroundImageFix"/>
<feBlend mode="normal" in="SourceGraphic" in2="BackgroundImageFix" result="shape"/>
<feGaussianBlur stdDeviation="0.125" result="effect1_foregroundBlur_552_1743"/>
</filter>
<filter id="filter4_f_552_1743" x="7.63098" y="5.72656" width="5.96252" height="5.69556" filterUnits="userSpaceOnUse" color-interpolation-filters="sRGB">
<feFlood flood-opacity="0" result="BackgroundImageFix"/>
<feBlend mode="normal" in="SourceGraphic" in2="BackgroundImageFix" result="shape"/>
<feGaussianBlur stdDeviation="0.5" result="effect1_foregroundBlur_552_1743"/>
</filter>
<filter id="filter5_f_552_1743" x="2.04199" y="5.72656" width="5.96301" height="5.69556" filterUnits="userSpaceOnUse" color-interpolation-filters="sRGB">
<feFlood flood-opacity="0" result="BackgroundImageFix"/>
<feBlend mode="normal" in="SourceGraphic" in2="BackgroundImageFix" result="shape"/>
<feGaussianBlur stdDeviation="0.5" result="effect1_foregroundBlur_552_1743"/>
</filter>
<filter id="filter6_f_552_1743" x="8.10815" y="11.7539" width="2.08777" height="2.3125" filterUnits="userSpaceOnUse" color-interpolation-filters="sRGB">
<feFlood flood-opacity="0" result="BackgroundImageFix"/>
<feBlend mode="normal" in="SourceGraphic" in2="BackgroundImageFix" result="shape"/>
<feGaussianBlur stdDeviation="0.25" result="effect1_foregroundBlur_552_1743"/>
</filter>
<radialGradient id="paint0_radial_552_1743" cx="0" cy="0" r="1" gradientUnits="userSpaceOnUse" gradientTransform="translate(12.7501 4.49979) rotate(132.839) scale(18.7516)">
<stop stop-color="#FFF478"/>
<stop offset="0.475" stop-color="#FFB02E"/>
<stop offset="1" stop-color="#F70A8D"/>
</radialGradient>
<radialGradient id="paint1_radial_552_1743" cx="0" cy="0" r="1" gradientUnits="userSpaceOnUse" gradientTransform="translate(8 6.25) rotate(90) scale(8.9427)">
<stop offset="0.824" stop-color="#F59639" stop-opacity="0"/>
<stop offset="1" stop-color="#FF63C4"/>
</radialGradient>
<radialGradient id="paint2_radial_552_1743" cx="0" cy="0" r="1" gradientUnits="userSpaceOnUse" gradientTransform="translate(7.9995 17.594) rotate(-90) scale(15.3437 33.7576)">
<stop offset="0.344" stop-color="#F59639" stop-opacity="0"/>
<stop offset="1" stop-color="#E73550"/>
</radialGradient>
<radialGradient id="paint3_radial_552_1743" cx="0" cy="0" r="1" gradientUnits="userSpaceOnUse" gradientTransform="translate(11.8547 4.44316) rotate(50.589) scale(3.21018 1.13631)">
<stop stop-color="#993D29"/>
<stop offset="1" stop-color="#B14B35" stop-opacity="0"/>
</radialGradient>
<radialGradient id="paint4_radial_552_1743" cx="0" cy="0" r="1" gradientUnits="userSpaceOnUse" gradientTransform="translate(3.5835 10.159) rotate(108.861) scale(3.86671 1.80989)">
<stop stop-color="#5C98FF"/>
<stop offset="0.806" stop-color="#3D5BF1"/>
<stop offset="0.962" stop-color="#6065CA"/>
</radialGradient>
<radialGradient id="paint5_radial_552_1743" cx="0" cy="0" r="1" gradientUnits="userSpaceOnUse" gradientTransform="translate(14.5835 2.159) rotate(108.861) scale(3.86671 1.80989)">
<stop stop-color="#5C98FF"/>
<stop offset="0.806" stop-color="#3D5BF1"/>
<stop offset="0.962" stop-color="#6065CA"/>
</radialGradient>
<radialGradient id="paint6_radial_552_1743" cx="0" cy="0" r="1" gradientUnits="userSpaceOnUse" gradientTransform="translate(5.39721 5.5838) rotate(-78.661) scale(2.2975 1.61747)">
<stop offset="0.255" stop-color="#993D29"/>
<stop offset="1" stop-color="#B14B35" stop-opacity="0"/>
</radialGradient>
<radialGradient id="paint7_radial_552_1743" cx="0" cy="0" r="1" gradientUnits="userSpaceOnUse" gradientTransform="translate(4.53505 4.93749) rotate(49.8812) scale(2.01261 4.78534)">
<stop offset="0.138" stop-color="#694F62"/>
<stop offset="0.398" stop-color="#482641"/>
</radialGradient>
<radialGradient id="paint8_radial_552_1743" cx="0" cy="0" r="1" gradientUnits="userSpaceOnUse" gradientTransform="translate(10.7342 5.5843) rotate(-101.339) scale(2.2975 1.61747)">
<stop offset="0.255" stop-color="#993D29"/>
<stop offset="1" stop-color="#B14B35" stop-opacity="0"/>
</radialGradient>
<radialGradient id="paint9_radial_552_1743" cx="0" cy="0" r="1" gradientUnits="userSpaceOnUse" gradientTransform="translate(11.4643 4.93763) rotate(130.119) scale(2.01261 4.78534)">
<stop offset="0.138" stop-color="#694F62"/>
<stop offset="0.398" stop-color="#482641"/>
</radialGradient>
<linearGradient id="paint10_linear_552_1743" x1="7.99949" y1="10.4766" x2="7.99949" y2="13.3206" gradientUnits="userSpaceOnUse">
<stop stop-color="#6D014D"/>
<stop offset="1" stop-color="#750C3F"/>
</linearGradient>
<radialGradient id="paint11_radial_552_1743" cx="0" cy="0" r="1" gradientUnits="userSpaceOnUse" gradientTransform="translate(7.99453 14.703) rotate(-90) scale(3.53757 6.1498)">
<stop offset="0.135" stop-color="#FF1C4A"/>
<stop offset="0.62" stop-color="#FF2B8F"/>
<stop offset="0.755" stop-color="#BB0773"/>
<stop offset="0.87" stop-color="#9F0762"/>
</radialGradient>
</defs>
</svg>
