<svg width="16" height="16" viewBox="0 0 16 16" fill="none" xmlns="http://www.w3.org/2000/svg">
<path d="M8 15.9993C12.4183 15.9993 16 12.4177 16 7.99933C16 3.582 12.4183 0 8 0C3.58167 0 0 3.58167 0 7.99967C0 12.4177 3.58167 15.9993 8 15.9993Z" fill="#E04F5F"/>
<path d="M8 12.6539C10.5707 12.6539 12.6543 10.5699 12.6543 7.99955C12.6543 5.42888 10.5707 3.34521 8 3.34521C5.42934 3.34521 3.34534 5.42888 3.34534 7.99955C3.34534 10.5702 5.42934 12.6539 8 12.6539Z" fill="#FACB1B"/>
<path d="M3.34534 7.99955C3.34534 10.5699 5.42934 12.6539 8 12.6539V3.34521C5.42934 3.34521 3.34534 5.42888 3.34534 7.99955Z" fill="#FBE158"/>
<path d="M7.99999 11.7085C6.59333 11.7085 5.61899 10.7609 5.26333 10.1425C5.23296 10.0897 5.21702 10.0298 5.21709 9.96883C5.21715 9.90787 5.23323 9.848 5.26371 9.79521C5.29419 9.74242 5.338 9.69856 5.39076 9.66803C5.44352 9.63749 5.50337 9.62135 5.56433 9.62122H10.4353C10.4963 9.62137 10.5561 9.63749 10.6088 9.66799C10.6616 9.69848 10.7054 9.74228 10.7359 9.795C10.7664 9.84773 10.7826 9.90754 10.7828 9.96847C10.783 10.0294 10.7672 10.0893 10.737 10.1422C10.3813 10.7605 9.40666 11.7085 7.99999 11.7085ZM6.10933 6.06122C5.78233 5.48588 4.80066 5.69122 4.80066 6.71888C4.82099 7.65455 6.10933 8.36322 6.10933 8.36322C6.10933 8.36322 7.39766 7.65455 7.41799 6.71888C7.41799 5.69122 6.43666 5.48555 6.10933 6.06122ZM9.89033 6.06122C9.56333 5.48588 8.58166 5.69122 8.58166 6.71888C8.60199 7.65455 9.89033 8.36322 9.89033 8.36322C9.89033 8.36322 11.1787 7.65455 11.199 6.71888C11.199 5.69122 10.2177 5.48555 9.89033 6.06122Z" fill="#FA5655"/>
<path d="M6.67334 11.4131C7.083 11.6073 7.53063 11.7083 7.98401 11.7087C8.49067 11.7087 8.94067 11.5844 9.32667 11.3981C9.21072 11.1426 9.0233 10.9262 8.78705 10.7749C8.55079 10.6236 8.2758 10.5439 7.99525 10.5454C7.71471 10.547 7.44061 10.6297 7.20604 10.7836C6.97148 10.9375 6.78646 11.1563 6.67334 11.4131Z" fill="#F79392"/>
</svg>
